<svg xmlns="http://www.w3.org/2000/svg" xmlns:xlink="http://www.w3.org/1999/xlink" version="1.1" preserveAspectRatio="xMidYMid meet" viewBox="195.53 103.21 248.94 433.58"><defs><path d="M267.14 296.48C238.79 296.48 215.81 319.46 215.81 347.81C215.81 376.16 238.79 399.14 267.14 399.14C295.48 399.14 318.46 376.16 318.46 347.81C318.46 319.46 295.48 296.48 267.14 296.48Z" id="daeXcwjsP"/><path d="M430.46 399.14C418.66 399.14 324.19 399.14 312.38 399.14C326.66 386.59 335.62 368.22 335.62 347.81C335.62 321.12 320.32 298.02 297.98 286.69C288.7 282.02 278.21 279.33 267.14 279.33C236.35 279.33 210.18 299.81 201.66 327.84C204.14 317.92 216.51 268.29 238.78 178.98L257.54 103.71L353.66 145.12C346.44 174.27 342.43 190.46 341.63 193.7C398.78 221.41 438.34 280.1 438.34 347.81C438.34 365.66 435.58 382.94 430.46 399.14Z" id="bZOASuFLi"/><path d="M206.91 495.2L206.91 511.52L216.45 511.52L216.45 495.2L227.33 495.2L227.33 536.29L216.45 536.29L216.45 521.31L206.91 521.31L206.91 536.29L196.03 536.29L196.03 495.2L206.91 495.2Z" id="dDejZbfUx"/><path d="M257.6 536.29L255.17 529.12L244.1 529.12L241.73 536.29L230.53 536.29L243.46 495.2L256.32 495.2L268.8 536.29L257.6 536.29ZM252.99 519.84L250.05 508.83L246.66 519.84L252.99 519.84Z" id="l573z81Q6"/><path d="M291.22 495.23L291.86 495.28L292.48 495.34L293.08 495.42L293.68 495.52L294.26 495.64L294.82 495.78L295.37 495.95L295.9 496.13L296.41 496.34L296.91 496.58L297.39 496.84L297.86 497.12L298.3 497.43L298.72 497.77L299.13 498.14L299.51 498.53L299.87 498.96L300.22 499.41L300.54 499.9L300.83 500.41L301.11 500.96L301.36 501.55L301.58 502.16L301.79 502.81L301.96 503.5L302.11 504.22L302.24 504.97L302.34 505.77L302.41 506.6L302.45 507.47L302.46 508.38L302.46 509.25L302.43 510.07L302.39 510.85L302.33 511.59L302.26 512.29L302.17 512.94L302.07 513.56L301.95 514.14L301.82 514.69L301.68 515.2L301.53 515.68L301.36 516.13L301.19 516.55L301 516.94L300.81 517.3L300.61 517.64L300.4 517.95L300.18 518.24L299.95 518.51L299.72 518.76L299.48 518.99L299.24 519.2L298.99 519.39L298.74 519.57L298.48 519.74L298.23 519.89L297.97 520.03L297.7 520.17L297.44 520.29L297.17 520.41L296.91 520.52L296.65 520.63L296.38 520.74L303.42 536.29L291.01 536.29L285.76 521.76L282.37 520.99L282.37 536.29L271.49 536.29L271.49 495.2L289.92 495.2L290.58 495.21L291.22 495.23ZM282.5 512.86L288.51 512.86L289.43 512.31L290.18 511.69L290.77 510.99L291.19 510.22L291.44 509.37L291.52 508.45L291.47 507.29L291.28 506.33L290.93 505.56L290.37 505L289.58 504.66L288.51 504.54L282.5 504.54L282.5 512.86Z" id="e6dgEJzAm"/><path d="M321.79 522.91L329.15 495.2L340.61 495.2L328.32 536.29L315.2 536.29L303.55 495.2L315.01 495.2L321.79 522.91Z" id="b1VNqJFyT"/><path d="M361.98 536.29L359.55 529.12L348.48 529.12L346.11 536.29L334.91 536.29L347.84 495.2L360.7 495.2L373.18 536.29L361.98 536.29ZM357.38 519.84L354.43 508.83L351.04 519.84L357.38 519.84Z" id="c7Yp8EzE8"/><path d="M395.61 495.23L396.24 495.28L396.86 495.34L397.47 495.42L398.06 495.52L398.64 495.64L399.2 495.78L399.75 495.95L400.28 496.13L400.8 496.34L401.3 496.58L401.78 496.84L402.24 497.12L402.68 497.43L403.11 497.77L403.51 498.14L403.9 498.53L404.26 498.96L404.6 499.41L404.92 499.9L405.22 500.41L405.49 500.96L405.74 501.55L405.97 502.16L406.17 502.81L406.35 503.5L406.5 504.22L406.62 504.97L406.72 505.77L406.79 506.6L406.83 507.47L406.85 508.38L406.84 509.25L406.81 510.07L406.77 510.85L406.71 511.59L406.64 512.29L406.55 512.94L406.45 513.56L406.33 514.14L406.21 514.69L406.06 515.2L405.91 515.68L405.75 516.13L405.57 516.55L405.39 516.94L405.2 517.3L404.99 517.64L404.78 517.95L404.56 518.24L404.34 518.51L404.11 518.76L403.87 518.99L403.62 519.2L403.38 519.39L403.12 519.57L402.87 519.74L402.61 519.89L402.35 520.03L402.09 520.17L401.82 520.29L401.56 520.41L401.29 520.52L401.03 520.63L400.77 520.74L407.81 536.29L395.39 536.29L390.14 521.76L386.75 520.99L386.75 536.29L375.87 536.29L375.87 495.2L394.3 495.2L394.96 495.21L395.61 495.23ZM386.88 512.86L392.9 512.86L393.82 512.31L394.57 511.69L395.15 510.99L395.57 510.22L395.82 509.37L395.9 508.45L395.85 507.29L395.66 506.33L395.31 505.56L394.76 505L393.96 504.66L392.9 504.54L386.88 504.54L386.88 512.86Z" id="b3Aduwp3IX"/><path d="M432.37 495.35L433.44 495.53L434.46 495.78L435.41 496.09L436.29 496.47L437.12 496.92L437.89 497.42L438.61 497.99L439.27 498.61L439.88 499.28L440.44 500.01L440.95 500.79L441.42 501.62L441.84 502.5L442.21 503.42L442.55 504.38L442.84 505.38L443.1 506.43L443.31 507.51L443.5 508.62L443.65 509.77L443.77 510.95L443.86 512.16L443.92 513.39L443.96 514.65L443.97 515.94L443.95 517.5L443.89 519L443.8 520.43L443.66 521.79L443.49 523.08L443.28 524.31L443.04 525.48L442.75 526.58L442.43 527.61L442.07 528.59L441.66 529.5L441.23 530.35L440.75 531.14L440.23 531.87L439.68 532.54L439.09 533.16L438.46 533.71L437.79 534.21L437.08 534.66L436.33 535.04L435.55 535.38L434.72 535.66L433.86 535.89L432.96 536.06L432.01 536.19L431.03 536.26L430.02 536.29L410.75 536.29L410.75 495.2L430.02 495.2L431.23 495.24L432.37 495.35ZM421.63 527.07L428.86 527.07L429.54 526.49L430.15 525.84L430.71 525.12L431.21 524.35L431.65 523.51L432.03 522.61L432.35 521.64L432.62 520.62L432.82 519.52L432.97 518.37L433.06 517.15L433.09 515.87L433.06 513.51L432.96 511.49L432.8 509.79L432.58 508.38L432.3 507.23L431.96 506.33L431.57 505.63L431.13 505.12L430.63 504.78L430.09 504.56L429.5 504.45L428.86 504.42L421.63 504.42L421.63 527.07Z" id="b1lsC1sbeg"/><path d="M215.1 416.54L215.1 445.15L231.81 445.15L231.81 416.54L250.88 416.54L250.88 488.54L231.81 488.54L231.81 462.24L215.1 462.24L215.1 488.54L196.03 488.54L196.03 416.54L215.1 416.54Z" id="asuD8wxTY"/><path d="M304 488.54L299.78 475.94L280.38 475.94L276.22 488.54L256.64 488.54L279.17 416.54L301.7 416.54L323.52 488.54L304 488.54ZM295.94 459.74L290.75 440.48L284.74 459.74L295.94 459.74Z" id="b1u2bEnII"/><path d="M375.1 419.62C375.1 421.1 375.1 432.98 375.1 434.46C374.98 434.46 365.18 432.8 355.01 432.8C346.75 432.8 343.3 432.42 343.3 452.51C343.3 468.64 345.15 471.97 355.07 471.97C365.38 471.97 375.04 471.07 375.04 471.07C375.04 472.56 375.04 484.44 375.04 485.92C368.96 488.48 363.65 489.38 349.06 489.06C330.88 488.74 324.16 476.45 324.16 452.26C324.22 429.34 329.54 415.71 349.12 415.71C363.26 415.71 366.66 416.48 375.1 419.62Z" id="b3azZgJFfK"/><path d="M399.55 416.54L399.55 444.83L403.46 444.83L418.11 416.48L440.06 416.48L420.29 452.7L440.06 488.54L418.11 488.54L403.46 460.96L399.62 460.96L399.62 488.54L381.44 488.54L381.44 416.54L399.55 416.54Z" id="bdBu2jBXU"/></defs><g><g><g><use xlink:href="#daeXcwjsP" opacity="1" fill="#e20029" fill-opacity="1"/><g><use xlink:href="#daeXcwjsP" opacity="1" fill-opacity="0" stroke="#000000" stroke-width="1" stroke-opacity="0"/></g></g><g><use xlink:href="#bZOASuFLi" opacity="1" fill="#e20029" fill-opacity="1"/><g><use xlink:href="#bZOASuFLi" opacity="1" fill-opacity="0" stroke="#000000" stroke-width="1" stroke-opacity="0"/></g></g><g><use xlink:href="#dDejZbfUx" opacity="1" fill="#e20029" fill-opacity="1"/><g><use xlink:href="#dDejZbfUx" opacity="1" fill-opacity="0" stroke="#000000" stroke-width="1" stroke-opacity="0"/></g></g><g><use xlink:href="#l573z81Q6" opacity="1" fill="#e20029" fill-opacity="1"/><g><use xlink:href="#l573z81Q6" opacity="1" fill-opacity="0" stroke="#000000" stroke-width="1" stroke-opacity="0"/></g></g><g><use xlink:href="#e6dgEJzAm" opacity="1" fill="#e20029" fill-opacity="1"/><g><use xlink:href="#e6dgEJzAm" opacity="1" fill-opacity="0" stroke="#000000" stroke-width="1" stroke-opacity="0"/></g></g><g><use xlink:href="#b1VNqJFyT" opacity="1" fill="#e20029" fill-opacity="1"/><g><use xlink:href="#b1VNqJFyT" opacity="1" fill-opacity="0" stroke="#000000" stroke-width="1" stroke-opacity="0"/></g></g><g><use xlink:href="#c7Yp8EzE8" opacity="1" fill="#e20029" fill-opacity="1"/><g><use xlink:href="#c7Yp8EzE8" opacity="1" fill-opacity="0" stroke="#000000" stroke-width="1" stroke-opacity="0"/></g></g><g><use xlink:href="#b3Aduwp3IX" opacity="1" fill="#e20029" fill-opacity="1"/><g><use xlink:href="#b3Aduwp3IX" opacity="1" fill-opacity="0" stroke="#000000" stroke-width="1" stroke-opacity="0"/></g></g><g><use xlink:href="#b1lsC1sbeg" opacity="1" fill="#e20029" fill-opacity="1"/><g><use xlink:href="#b1lsC1sbeg" opacity="1" fill-opacity="0" stroke="#000000" stroke-width="1" stroke-opacity="0"/></g></g><g><use xlink:href="#asuD8wxTY" opacity="1" fill="#e20029" fill-opacity="1"/><g><use xlink:href="#asuD8wxTY" opacity="1" fill-opacity="0" stroke="#000000" stroke-width="1" stroke-opacity="0"/></g></g><g><use xlink:href="#b1u2bEnII" opacity="1" fill="#e20029" fill-opacity="1"/><g><use xlink:href="#b1u2bEnII" opacity="1" fill-opacity="0" stroke="#000000" stroke-width="1" stroke-opacity="0"/></g></g><g><use xlink:href="#b3azZgJFfK" opacity="1" fill="#e20029" fill-opacity="1"/><g><use xlink:href="#b3azZgJFfK" opacity="1" fill-opacity="0" stroke="#000000" stroke-width="1" stroke-opacity="0"/></g></g><g><use xlink:href="#bdBu2jBXU" opacity="1" fill="#e20029" fill-opacity="1"/><g><use xlink:href="#bdBu2jBXU" opacity="1" fill-opacity="0" stroke="#000000" stroke-width="1" stroke-opacity="0"/></g></g></g></g></svg>